<?xml version="1.0" standalone="no"?>
<!DOCTYPE svg PUBLIC "-//W3C//DTD SVG 20010904//EN"
 "http://www.w3.org/TR/2001/REC-SVG-20010904/DTD/svg10.dtd">
<svg version="1.0" xmlns="http://www.w3.org/2000/svg"
 width="50.000000pt" height="50.000000pt" viewBox="0 0 512.000000 512.000000"
 preserveAspectRatio="xMidYMid meet">

<g transform="translate(0.000000,512.000000) scale(0.100000,-0.100000)"
fill="#ffffff" stroke="none">
<path d="M915 5109 c-175 -25 -371 -111 -512 -224 -488 -391 -538 -1110 -109
-1562 161 -170 360 -277 591 -317 104 -18 155 -20 155 -6 0 24 -95 210 -146
286 -31 47 -123 153 -203 238 -152 158 -195 220 -237 346 -28 83 -27 281 3
375 62 194 224 356 418 418 94 30 292 31 375 3 125 -42 189 -86 338 -229 198
-190 316 -274 480 -340 l62 -26 0 38 c0 104 -52 304 -107 416 -70 139 -198
292 -322 385 -220 162 -517 238 -786 199z"/>
<path d="M3879 5104 c-455 -82 -795 -421 -873 -869 -18 -104 -20 -155 -6 -155
24 0 210 95 286 146 47 31 153 123 238 203 158 152 220 195 346 237 83 28 281
27 375 -3 194 -62 356 -224 418 -418 30 -94 31 -292 3 -375 -42 -125 -86 -189
-229 -338 -190 -198 -274 -316 -340 -479 l-26 -63 38 0 c61 0 209 29 290 56
311 106 567 366 666 677 116 365 41 735 -208 1029 -114 133 -316 267 -481 317
-160 49 -348 62 -497 35z"/>
<path d="M915 4200 l-149 -150 190 -192 c241 -244 325 -355 424 -557 224 -458
224 -1024 0 -1482 -99 -202 -183 -313 -424 -557 l-190 -193 152 -151 151 -152
193 190 c191 188 294 275 416 348 597 359 1350 321 1907 -98 44 -33 167 -145
273 -250 l193 -190 151 152 152 151 -195 198 c-191 193 -266 284 -343 410
-199 330 -280 719 -231 1100 40 299 143 556 324 803 30 41 143 164 250 273
l195 198 -152 152 -151 151 -193 -190 c-191 -188 -294 -275 -416 -348 -542
-326 -1222 -326 -1764 0 -122 73 -225 159 -414 346 -104 103 -192 188 -195
188 -2 0 -72 -67 -154 -150z"/>
<path d="M876 2114 c-565 -102 -953 -646 -861 -1210 81 -502 489 -872 996
-901 469 -27 910 271 1062 717 42 123 71 320 47 320 -24 0 -210 -95 -286 -146
-47 -31 -153 -123 -238 -203 -158 -152 -220 -195 -346 -237 -83 -28 -281 -27
-375 3 -194 62 -356 224 -418 418 -30 94 -31 292 -3 375 42 125 86 189 229
338 190 198 274 316 340 480 l26 62 -47 -1 c-26 0 -82 -7 -126 -15z"/>
<path d="M4080 2120 c0 -24 95 -210 146 -286 31 -47 123 -153 203 -238 152
-158 195 -220 237 -346 28 -83 27 -281 -3 -375 -62 -194 -224 -356 -418 -418
-94 -30 -292 -31 -375 -3 -125 42 -189 86 -338 229 -198 190 -316 274 -479
340 l-63 26 0 -38 c0 -21 7 -78 15 -127 100 -571 643 -961 1211 -869 278 45
520 189 684 407 329 437 281 1041 -113 1414 -158 150 -338 241 -552 278 -104
18 -155 20 -155 6z"/>
</g>
</svg>
