<?xml version="1.0" standalone="no"?>
<!DOCTYPE svg PUBLIC "-//W3C//DTD SVG 20010904//EN"
 "http://www.w3.org/TR/2001/REC-SVG-20010904/DTD/svg10.dtd">
<svg version="1.0" xmlns="http://www.w3.org/2000/svg"
 width="20.000000pt" height="20.000000pt" viewBox="0 0 512.000000 512.000000"
 preserveAspectRatio="xMidYMid meet">

<g transform="translate(0.000000,512.000000) scale(0.100000,-0.100000)"
fill="#ffffff" stroke="none">
<path d="M665 5095 c-24 -23 -25 -29 -25 -160 l0 -135 -135 0 c-187 0 -185 2
-185 -185 l0 -135 -135 0 c-131 0 -137 -1 -160 -25 -33 -32 -33 -78 0 -110 23
-24 29 -25 160 -25 l135 0 0 -80 0 -80 -135 0 c-131 0 -137 -1 -160 -25 -33
-32 -33 -78 0 -110 23 -24 29 -25 160 -25 l135 0 0 -135 c0 -131 1 -137 25
-160 23 -24 29 -25 160 -25 l135 0 0 -135 c0 -131 1 -137 25 -160 15 -16 36
-25 55 -25 19 0 40 9 55 25 24 23 25 29 25 160 l0 135 80 0 80 0 0 -135 c0
-131 1 -137 25 -160 32 -33 78 -33 110 0 24 23 25 29 25 160 l0 135 135 0
c131 0 137 1 160 25 24 23 25 29 25 160 l0 135 135 0 c131 0 137 1 160 25 33
32 33 78 0 110 -23 24 -29 25 -160 25 l-135 0 0 80 0 80 135 0 c131 0 137 1
160 25 33 32 33 78 0 110 -23 24 -29 25 -160 25 l-135 0 0 135 c0 187 2 185
-185 185 l-135 0 0 135 c0 131 -1 137 -25 160 -15 16 -36 25 -55 25 -19 0 -40
-9 -55 -25 -24 -23 -25 -29 -25 -160 l0 -135 -80 0 -80 0 0 135 c0 131 -1 137
-25 160 -15 16 -36 25 -55 25 -19 0 -40 -9 -55 -25z m615 -855 l0 -400 -400 0
-400 0 0 400 0 400 400 0 400 0 0 -400z"/>
<path d="M4025 5095 c-24 -23 -25 -29 -25 -160 l0 -135 -135 0 c-131 0 -137
-1 -160 -25 -24 -23 -25 -29 -25 -160 l0 -135 -135 0 c-131 0 -137 -1 -160
-25 -16 -15 -25 -36 -25 -55 0 -19 9 -40 25 -55 23 -24 29 -25 160 -25 l135 0
0 -80 0 -80 -135 0 c-131 0 -137 -1 -160 -25 -16 -15 -25 -36 -25 -55 0 -19 9
-40 25 -55 23 -24 29 -25 160 -25 l135 0 0 -135 c0 -131 1 -137 25 -160 23
-24 29 -25 160 -25 l135 0 0 -135 c0 -131 1 -137 25 -160 15 -16 36 -25 55
-25 19 0 40 9 55 25 24 23 25 29 25 160 l0 135 80 0 80 0 0 -135 c0 -131 1
-137 25 -160 32 -33 78 -33 110 0 24 23 25 29 25 160 l0 135 135 0 c131 0 137
1 160 25 24 23 25 29 25 160 l0 135 135 0 c131 0 137 1 160 25 16 15 25 36 25
55 0 19 -9 40 -25 55 -23 24 -29 25 -160 25 l-135 0 0 80 0 80 135 0 c131 0
137 1 160 25 33 32 33 78 0 110 -23 24 -29 25 -160 25 l-135 0 0 135 c0 131
-1 137 -25 160 -23 24 -29 25 -160 25 l-135 0 0 135 c0 131 -1 137 -25 160
-15 16 -36 25 -55 25 -19 0 -40 -9 -55 -25 -24 -23 -25 -29 -25 -160 l0 -135
-80 0 -80 0 0 135 c0 131 -1 137 -25 160 -15 16 -36 25 -55 25 -19 0 -40 -9
-55 -25z m615 -855 l0 -400 -400 0 -400 0 0 400 0 400 400 0 400 0 0 -400z"/>
<path d="M2404 4985 c-57 -24 -188 -207 -243 -339 -58 -139 -75 -233 -75 -406
-1 -130 3 -169 22 -242 48 -182 126 -329 237 -445 79 -83 101 -89 146 -44 41
41 37 70 -17 133 -148 172 -219 340 -231 550 -13 238 66 468 219 634 49 54 59
82 43 121 -17 39 -60 56 -101 38z"/>
<path d="M2594 4733 c-209 -215 -252 -557 -106 -837 49 -93 137 -186 177 -186
37 1 61 18 74 53 13 34 7 50 -47 116 -182 225 -174 536 18 746 37 40 44 68 26
103 -29 56 -89 58 -142 5z"/>
<path d="M2824 4508 c-135 -145 -136 -388 -2 -530 43 -46 92 -52 126 -15 32
34 28 76 -12 127 -66 83 -73 189 -20 275 54 87 55 91 44 121 -24 63 -88 73
-136 22z"/>
<path d="M4063 3026 c-200 -38 -391 -133 -525 -260 -41 -39 -48 -51 -48 -84 0
-48 27 -76 75 -76 25 0 44 10 77 40 150 139 342 219 550 231 244 14 463 -64
645 -229 62 -56 99 -63 138 -23 42 41 34 80 -27 138 -120 113 -282 201 -447
244 -120 31 -327 40 -438 19z"/>
<path d="M631 2959 c-60 -24 -69 -91 -18 -136 153 -134 388 -135 530 -1 45 43
51 92 14 126 -34 32 -76 28 -128 -12 -98 -75 -207 -75 -303 -2 -40 30 -65 37
-95 25z"/>
<path d="M395 2739 c-61 -35 -62 -91 -1 -149 162 -154 404 -221 634 -174 165
33 382 175 382 249 -1 37 -18 61 -53 74 -34 13 -50 7 -116 -47 -226 -182 -538
-174 -746 19 -36 33 -72 43 -100 28z"/>
<path d="M4111 2709 c-129 -25 -259 -89 -342 -169 -47 -44 -59 -62 -59 -85 1
-37 18 -61 53 -74 35 -13 50 -7 117 47 64 52 172 105 248 121 172 36 364 -18
497 -139 40 -37 68 -44 103 -26 33 17 42 34 42 78 0 72 -205 203 -377 242 -76
17 -209 19 -282 5z"/>
<path d="M145 2495 c-42 -41 -34 -80 27 -137 73 -69 204 -154 301 -195 228
-96 495 -108 727 -33 135 45 287 134 388 229 35 34 42 46 42 79 0 48 -27 76
-74 76 -25 0 -47 -12 -92 -50 -118 -101 -216 -155 -361 -196 -66 -19 -102 -23
-228 -22 -134 0 -160 3 -238 27 -143 44 -249 103 -354 199 -62 56 -99 63 -138
23z"/>
<path d="M4135 2387 c-114 -38 -195 -104 -195 -159 0 -43 34 -78 77 -78 18 0
46 13 74 34 102 78 209 75 318 -8 19 -14 48 -26 63 -26 36 0 78 40 78 75 0 38
-63 101 -138 136 -54 26 -80 32 -151 35 -54 3 -101 -1 -126 -9z"/>
<path d="M665 1735 c-24 -23 -25 -29 -25 -160 l0 -135 -135 0 c-131 0 -137 -1
-160 -25 -24 -23 -25 -29 -25 -160 l0 -135 -135 0 c-131 0 -137 -1 -160 -25
-33 -32 -33 -78 0 -110 23 -24 29 -25 160 -25 l135 0 0 -80 0 -80 -135 0
c-131 0 -137 -1 -160 -25 -33 -32 -33 -78 0 -110 23 -24 29 -25 160 -25 l135
0 0 -135 c0 -131 1 -137 25 -160 23 -24 29 -25 160 -25 l135 0 0 -135 c0 -131
1 -137 25 -160 32 -33 78 -33 110 0 24 23 25 29 25 160 l0 135 80 0 80 0 0
-135 c0 -131 1 -137 25 -160 32 -33 78 -33 110 0 24 23 25 29 25 160 l0 135
135 0 c131 0 137 1 160 25 24 23 25 29 25 160 l0 135 135 0 c131 0 137 1 160
25 33 32 33 78 0 110 -23 24 -29 25 -160 25 l-135 0 0 80 0 80 135 0 c131 0
137 1 160 25 33 32 33 78 0 110 -23 24 -29 25 -160 25 l-135 0 0 135 c0 131
-1 137 -25 160 -23 24 -29 25 -160 25 l-135 0 0 135 c0 131 -1 137 -25 160
-15 16 -36 25 -55 25 -19 0 -40 -9 -55 -25 -24 -23 -25 -29 -25 -160 l0 -135
-80 0 -80 0 0 135 c0 131 -1 137 -25 160 -15 16 -36 25 -55 25 -19 0 -40 -9
-55 -25z m615 -855 l0 -400 -400 0 -400 0 0 400 0 400 400 0 400 0 0 -400z"/>
<path d="M4025 1735 c-24 -23 -25 -29 -25 -160 l0 -135 -135 0 c-131 0 -137
-1 -160 -25 -24 -23 -25 -29 -25 -160 l0 -135 -135 0 c-131 0 -137 -1 -160
-25 -16 -15 -25 -36 -25 -55 0 -19 9 -40 25 -55 23 -24 29 -25 160 -25 l135 0
0 -80 0 -80 -135 0 c-131 0 -137 -1 -160 -25 -16 -15 -25 -36 -25 -55 0 -19 9
-40 25 -55 23 -24 29 -25 160 -25 l135 0 0 -135 c0 -131 1 -137 25 -160 23
-24 29 -25 160 -25 l135 0 0 -135 c0 -131 1 -137 25 -160 32 -33 78 -33 110 0
24 23 25 29 25 160 l0 135 80 0 80 0 0 -135 c0 -131 1 -137 25 -160 32 -33 78
-33 110 0 24 23 25 29 25 160 l0 135 135 0 c131 0 137 1 160 25 24 23 25 29
25 160 l0 135 135 0 c131 0 137 1 160 25 16 15 25 36 25 55 0 19 -9 40 -25 55
-23 24 -29 25 -160 25 l-135 0 0 80 0 80 135 0 c131 0 137 1 160 25 33 32 33
78 0 110 -23 24 -29 25 -160 25 l-135 0 0 135 c0 131 -1 137 -25 160 -23 24
-29 25 -160 25 l-135 0 0 135 c0 131 -1 137 -25 160 -15 16 -36 25 -55 25 -19
0 -40 -9 -55 -25 -24 -23 -25 -29 -25 -160 l0 -135 -80 0 -80 0 0 135 c0 131
-1 137 -25 160 -15 16 -36 25 -55 25 -19 0 -40 -9 -55 -25z m615 -855 l0 -400
-400 0 -400 0 0 400 0 400 400 0 400 0 0 -400z"/>
<path d="M2629 1611 c-41 -41 -37 -70 17 -133 104 -121 165 -231 206 -375 19
-66 23 -102 22 -228 0 -134 -3 -160 -27 -238 -44 -143 -103 -249 -199 -354
-38 -42 -48 -60 -48 -88 0 -47 29 -75 77 -75 32 0 44 8 87 53 109 115 207 298
247 462 29 115 35 297 15 412 -35 199 -127 390 -251 520 -79 83 -101 89 -146
44z"/>
<path d="M2408 1396 c-23 -17 -39 -61 -31 -83 4 -10 26 -43 51 -72 148 -184
173 -418 66 -622 -20 -38 -53 -88 -74 -111 -47 -55 -55 -79 -36 -116 17 -33
34 -42 76 -42 49 0 135 103 195 234 116 251 67 576 -115 767 -59 62 -94 74
-132 45z"/>
<path d="M2172 1157 c-32 -34 -28 -76 12 -128 75 -99 75 -200 1 -305 -42 -58
-45 -95 -10 -129 38 -39 71 -33 126 24 68 71 93 141 94 261 0 86 -3 101 -31
160 -42 90 -91 140 -136 140 -23 0 -42 -8 -56 -23z"/>
</g>
</svg>
